<svg width="72" height="73" viewBox="0 0 72 73" fill="none" xmlns="http://www.w3.org/2000/svg">
<path d="M9.53759 33.9024C10.6296 34.8192 11.76 35.7672 12.0264 36.5892C12.3156 37.4796 11.952 38.9592 11.6016 40.3908C11.0724 42.5484 10.524 44.7804 11.7288 46.4364C12.9468 48.1092 15.252 48.276 17.4828 48.4368C18.9408 48.5424 20.4479 48.6516 21.1871 49.1892C21.8159 49.6464 22.3211 50.754 22.7999 51.9155V70.7999C22.7999 71.2163 23.0159 71.6015 23.3699 71.8211C23.7227 72.0395 24.1643 72.0575 24.5375 71.8739L31.1999 68.5415L37.8635 71.8727C38.0327 71.9579 38.2163 71.9999 38.3999 71.9999C38.6195 71.9999 38.8379 71.9399 39.0299 71.8211C39.3839 71.6015 39.5999 71.2163 39.5999 70.7999V67.7999L43.1999 65.0999L47.2798 68.1599C47.491 68.3183 47.7454 68.3999 47.9998 68.3999C48.1822 68.3999 48.367 68.3579 48.5362 68.2739C48.943 68.0699 49.1998 67.6547 49.1998 67.1999V51.9155C49.6786 50.7528 50.1838 49.6464 50.8114 49.1892C51.5506 48.6516 53.059 48.5424 54.517 48.4368C56.7466 48.276 59.053 48.1104 60.271 46.4364C61.4758 44.7804 60.9286 42.5496 60.3982 40.3908C60.0466 38.9604 59.683 37.4796 59.9734 36.5892C60.241 35.766 61.3702 34.818 62.4622 33.9024C64.1206 32.5104 65.9998 30.9324 65.9998 28.8C65.9998 26.6676 64.1206 25.0896 62.4622 23.6977C61.3702 22.7809 60.2398 21.8329 59.9734 21.0109C59.6842 20.1205 60.0478 18.6409 60.3982 17.2093C60.9274 15.0517 61.4758 12.8197 60.271 11.1637C59.053 9.49091 56.7478 9.32411 54.517 9.16331C53.059 9.05771 51.5518 8.94851 50.8126 8.41091C50.089 7.88531 49.5286 6.49812 48.9862 5.15773C48.1414 3.06853 47.2666 0.909742 45.2723 0.261745C43.3583 -0.362253 41.4227 0.837742 39.5531 1.99814C38.2823 2.78533 36.9695 3.60013 35.9999 3.60013C35.0303 3.60013 33.7175 2.78533 32.4467 1.99814C30.5771 0.837742 28.6403 -0.362253 26.7275 0.261745C24.7331 0.909742 23.8595 3.06853 23.0147 5.15653C22.4711 6.49812 21.9095 7.88531 21.1883 8.41091C20.4491 8.94851 18.9408 9.05771 17.4828 9.16331C15.2532 9.32411 12.9468 9.48971 11.7288 11.1637C10.524 12.8197 11.0712 15.0505 11.6016 17.2093C11.9532 18.6397 12.3168 20.1205 12.0264 21.0109C11.7588 21.8341 10.6296 22.7821 9.53759 23.6977C7.87919 25.0896 6 26.6676 6 28.8C6 30.9324 7.87919 32.5104 9.53759 33.9024ZM37.1999 68.8583L31.7363 66.1271C31.5683 66.0419 31.3835 65.9999 31.1999 65.9999C31.0163 65.9999 30.8315 66.0419 30.6635 66.1259L25.1999 68.8583V56.3843C25.2299 56.4143 25.2659 56.4335 25.2971 56.4623C25.4351 56.5919 25.5839 56.7071 25.7363 56.8163C25.8107 56.8691 25.8803 56.9279 25.9595 56.9759C26.1971 57.1211 26.4503 57.2471 26.7287 57.3383C28.6415 57.9599 30.5783 56.7623 32.4479 55.6019C32.4496 55.6009 32.4513 55.5998 32.453 55.5988C33.721 54.8125 35.0316 53.9999 35.9999 53.9999C36.1523 53.9999 36.3227 54.0263 36.5063 54.0683C36.5339 54.0743 36.5627 54.0827 36.5915 54.0899C36.7787 54.1391 36.9779 54.2051 37.1999 54.2975V67.1999V68.8583ZM46.7998 64.7999L43.9199 62.6399C43.7063 62.4803 43.4531 62.3999 43.1999 62.3999C42.9467 62.3999 42.6935 62.4803 42.4799 62.6399L39.5999 64.7999V55.6343C39.9179 55.8311 40.2371 56.0255 40.5587 56.2139C40.6355 56.2595 40.7123 56.3039 40.7903 56.3483C40.9067 56.4143 41.0219 56.4791 41.1395 56.5427C41.2495 56.6032 41.3606 56.6597 41.4708 56.7159C41.4832 56.7222 41.4955 56.7284 41.5079 56.7347C41.5979 56.7803 41.6879 56.8271 41.7779 56.8691C41.9699 56.9603 42.1619 57.0431 42.3539 57.1187C42.3791 57.1283 42.4043 57.1415 42.4307 57.1511C42.6467 57.2327 42.8639 57.2999 43.0811 57.3563C43.1483 57.3743 43.2155 57.3839 43.2839 57.3983C43.4351 57.4307 43.5875 57.4583 43.7387 57.4751C43.8203 57.4847 43.9019 57.4883 43.9835 57.4931C44.0507 57.4967 44.1191 57.5087 44.1863 57.5087C44.2655 57.5087 44.3459 57.4955 44.4251 57.4907C44.4935 57.4859 44.5631 57.4835 44.6315 57.4751C44.8463 57.4487 45.0599 57.4079 45.2747 57.3383C45.5543 57.2471 45.8063 57.1211 46.045 56.9759C46.1231 56.9279 46.1926 56.8703 46.2659 56.8175C46.4194 56.7083 46.5683 56.5931 46.7051 56.4635C46.7351 56.4347 46.7722 56.4143 46.8022 56.3843V64.7999H46.7998ZM11.0808 25.5348C12.432 24.4009 13.83 23.2285 14.3088 21.7513C14.8092 20.2105 14.3628 18.3937 13.932 16.6357C13.5528 15.0853 13.1208 13.3297 13.6692 12.5749C14.2308 11.8033 16.05 11.6725 17.6556 11.5561C19.4495 11.4265 21.3047 11.2921 22.5995 10.3513C23.8763 9.42131 24.5699 7.71012 25.2383 6.05652C25.8479 4.55173 26.5379 2.84653 27.4667 2.54414C28.3319 2.26934 29.8415 3.20653 31.1807 4.03693C32.7383 5.00173 34.3475 6.00012 35.9999 6.00012C37.6523 6.00012 39.2615 5.00173 40.8179 4.03693C42.1571 3.20653 43.6679 2.26814 44.5319 2.54414C45.4607 2.84533 46.153 4.55173 46.7614 6.05652C47.431 7.71012 48.1234 9.42131 49.4002 10.3513C50.6938 11.2933 52.5502 11.4265 54.3442 11.5561C55.9498 11.6725 57.769 11.8033 58.3294 12.5749C58.879 13.3297 58.4482 15.0865 58.0666 16.6369C57.6358 18.3937 57.1894 20.2117 57.6898 21.7513C58.1686 23.2285 59.5666 24.4021 60.9178 25.536C62.2366 26.6424 63.5998 27.786 63.5998 28.8C63.5998 29.814 62.2366 30.9576 60.919 32.0652C59.5678 33.1992 58.1698 34.3716 57.691 35.8488C57.1906 37.3896 57.637 39.2064 58.0678 40.9644C58.447 42.5148 58.879 44.2704 58.3306 45.0252C57.769 45.7968 55.9498 45.9276 54.3442 46.044C52.5502 46.1736 50.695 46.308 49.4002 47.2488C48.2038 48.12 47.5222 49.6752 46.8899 51.2267L46.8886 51.2291L46.8466 51.3323C46.8178 51.4031 46.789 51.4727 46.7603 51.5435C46.1507 53.0483 45.4607 54.7535 44.5319 55.0559C43.6691 55.3343 42.1571 54.3935 40.8179 53.5631C39.9527 53.0267 39.0695 52.4855 38.1731 52.1063C38.1455 52.0943 38.1191 52.0835 38.0915 52.0727C37.8791 51.9851 37.6667 51.9095 37.4531 51.8435C37.4159 51.8315 37.3763 51.8183 37.3391 51.8075C37.1483 51.7523 36.9551 51.7103 36.7631 51.6767C36.7259 51.6707 36.6863 51.6587 36.6491 51.6539C36.4343 51.6191 36.2171 51.5999 35.9999 51.5999C34.3475 51.5999 32.7383 52.5983 31.1819 53.5631C29.8427 54.3935 28.3319 55.3331 27.4679 55.0559C26.5487 54.7571 25.8623 53.0843 25.2575 51.5927C25.2503 51.5759 25.2431 51.5579 25.2359 51.5411L25.1111 51.2303C25.1099 51.2279 25.1087 51.2267 25.1075 51.2255C24.4763 49.674 23.7935 48.12 22.5983 47.25C21.3047 46.308 19.4483 46.1748 17.6544 46.0452C16.0488 45.9288 14.2296 45.798 13.6692 45.0264C13.1196 44.2716 13.5504 42.5148 13.932 40.9644C14.3628 39.2076 14.8092 37.3896 14.3088 35.85C13.83 34.3728 12.432 33.1992 11.0808 32.0652C9.76319 30.9576 8.39999 29.814 8.39999 28.8C8.39999 27.786 9.76319 26.6424 11.0808 25.5348Z" fill="#9C9D9D"/>
<path d="M37.1999 68.8583L31.7363 66.1271C31.5683 66.0419 31.3835 65.9999 31.1999 65.9999C31.0163 65.9999 30.8315 66.0419 30.6635 66.1259L25.1999 68.8583V56.3843C25.2299 56.4143 25.2659 56.4335 25.2971 56.4623C25.4351 56.5919 25.5839 56.7071 25.7363 56.8163C25.8107 56.8691 25.8803 56.9279 25.9595 56.9759C26.1971 57.1211 26.4503 57.2471 26.7287 57.3383C28.6415 57.9599 30.5783 56.7623 32.4479 55.6019L32.453 55.5988C33.721 54.8125 35.0316 53.9999 35.9999 53.9999C36.1523 53.9999 36.3227 54.0263 36.5063 54.0683C36.5339 54.0743 36.5627 54.0827 36.5915 54.0899C36.7787 54.1391 36.9779 54.2051 37.1999 54.2975V67.1999V68.8583Z" fill="#DADADA"/>
<path d="M46.7998 64.7999L43.9199 62.6399C43.7063 62.4803 43.4531 62.3999 43.1999 62.3999C42.9467 62.3999 42.6935 62.4803 42.4799 62.6399L39.5999 64.7999V55.6343C39.9179 55.8311 40.2371 56.0255 40.5587 56.2139C40.6355 56.2595 40.7123 56.3039 40.7903 56.3483C40.9067 56.4143 41.0219 56.4791 41.1395 56.5427C41.2495 56.6032 41.3606 56.6597 41.4708 56.7159L41.5079 56.7347C41.5979 56.7803 41.6879 56.8271 41.7779 56.8691C41.9699 56.9603 42.1619 57.0431 42.3539 57.1187C42.3791 57.1283 42.4043 57.1415 42.4307 57.1511C42.6467 57.2327 42.8639 57.2999 43.0811 57.3563C43.1483 57.3743 43.2155 57.3839 43.2839 57.3983C43.4351 57.4307 43.5875 57.4583 43.7387 57.4751C43.8203 57.4847 43.9019 57.4883 43.9835 57.4931C44.0507 57.4967 44.1191 57.5087 44.1863 57.5087C44.2655 57.5087 44.3459 57.4955 44.4251 57.4907C44.4935 57.4859 44.5631 57.4835 44.6315 57.4751C44.8463 57.4487 45.0599 57.4079 45.2747 57.3383C45.5543 57.2471 45.8063 57.1211 46.045 56.9759C46.1231 56.9279 46.1926 56.8703 46.2659 56.8175C46.4194 56.7083 46.5683 56.5931 46.7051 56.4635C46.7351 56.4347 46.7722 56.4143 46.8022 56.3843V64.7999H46.7998Z" fill="#DADADA"/>
<path d="M36.0005 49.2054C47.2493 49.2054 56.4004 40.0542 56.4004 28.8054C56.4004 17.5567 47.2493 8.40552 36.0005 8.40552C24.7518 8.40552 15.6006 17.5567 15.6006 28.8054C15.6006 40.0542 24.7518 49.2054 36.0005 49.2054ZM36.0005 10.8055C45.9257 10.8055 54.0004 18.8803 54.0004 28.8054C54.0004 38.7306 45.9257 46.8054 36.0005 46.8054C26.0753 46.8054 18.0006 38.7306 18.0006 28.8054C18.0006 18.8803 26.0753 10.8055 36.0005 10.8055Z" fill="#9C9D9D"/>
<path d="M36.0005 10.8055C45.9257 10.8055 54.0004 18.8803 54.0004 28.8054C54.0004 38.7306 45.9257 46.8054 36.0005 46.8054C26.0753 46.8054 18.0006 38.7306 18.0006 28.8054C18.0006 18.8803 26.0753 10.8055 36.0005 10.8055Z" fill="#DADADA"/>
<path d="M2.39999 7.19997H4.79998V4.79998H7.19997V2.39999H4.79998V0H2.39999V2.39999H0V4.79998H2.39999V7.19997Z" fill="#9C9D9D"/>
<path d="M69.6008 5.99731H67.2008V8.39731H64.8008V10.7973H67.2008V13.1973H69.6008V10.7973H72.0008V8.39731H69.6008V5.99731Z" fill="#9C9D9D"/>
<path d="M2.39999 55.2012H4.79998V52.8012H7.19997V50.4012H4.79998V48.0012H2.39999V50.4012H0V52.8012H2.39999V55.2012Z" fill="#9C9D9D"/>
<path d="M69.6008 64.7976H67.2008V67.1976H64.8008V69.5976H67.2008V71.9976H69.6008V69.5976H72.0008V67.1976H69.6008V64.7976Z" fill="#9C9D9D"/>
<path d="M65.9992 52.803C60.0436 52.803 55.1992 57.6486 55.1992 63.6029V64.8029H57.5992V63.6029C57.5992 58.971 61.3684 55.203 65.9992 55.203V52.803Z" fill="#9C9D9D"/>
<path d="M15.5988 72.0014V70.8014C15.5988 64.847 10.7544 60.0015 4.79883 60.0015V62.4015C9.42961 62.4015 13.1988 66.1694 13.1988 70.8014V72.0014H15.5988Z" fill="#9C9D9D"/>
<path d="M2.39999 16.7964H0V19.1964H2.39999V16.7964Z" fill="#9C9D9D"/>
<path d="M55.1998 0H52.7998V2.39999H55.1998V0Z" fill="#9C9D9D"/>
<path d="M71.9996 52.803H69.5996V55.203H71.9996V52.803Z" fill="#9C9D9D"/>
<path d="M2.39999 60.0015H0V62.4015H2.39999V60.0015Z" fill="#9C9D9D"/>
<path d="M69.6002 34.7969H67.2002V37.1969H69.6002V34.7969Z" fill="#9C9D9D"/>
</svg>
