<svg width="48" height="48" viewBox="0 0 48 48" fill="none" xmlns="http://www.w3.org/2000/svg">
<circle cx="24" cy="24" r="24" fill="white"/>
<path fill-rule="evenodd" clip-rule="evenodd" d="M33.19 11.4956C32.9236 10.6375 32.1508 10.04 31.2585 10.0019C30.3661 9.96389 29.5459 10.4936 29.2084 11.3259L23.4117 25.6208L19.8298 17.2912C19.4965 16.5162 18.7399 16.0123 17.9009 16.0065C17.0619 16.0008 16.2987 16.4942 15.9548 17.2646C15.9548 17.2646 10.6246 26.5442 11.1688 27.9899C11.713 29.4357 9.9795 31.0914 10.0002 33.2508C10.0147 34.763 10.1326 37.3155 11.6375 37.3197C11.6375 37.3197 11.6833 37.3198 11.7126 37.3197C17.6219 37.2928 17.8506 23.42 17.8506 23.42L21.5257 31.9662C21.8643 32.7535 22.6389 33.2598 23.4911 33.2508C24.3434 33.2418 25.1073 32.7193 25.4294 31.925L30.9042 18.4242C30.9042 18.4242 33.2093 43.5747 36.6281 36.8606C37.3045 35.5322 37.5612 34.7093 37.8747 33.2508C38.4216 30.7061 36.8393 28.1915 37.8747 26.5845C38.91 24.9774 33.19 11.4956 33.19 11.4956Z" fill="url(#paint0_linear_3_23)"/>
<defs>
<linearGradient id="paint0_linear_3_23" x1="37.8746" y1="10" x2="7.00559" y2="10" gradientUnits="userSpaceOnUse">
<stop offset="0.322917" stop-color="#D12C3A"/>
<stop offset="0.640625" stop-color="#223B89"/>
</linearGradient>
</defs>
</svg>
