<?xml version="1.0" encoding="utf-8"?>
<!-- Generator: Adobe Illustrator 21.0.0, SVG Export Plug-In . SVG Version: 6.00 Build 0)  -->
<svg version="1.1" id="Layer_1" xmlns="http://www.w3.org/2000/svg" xmlns:xlink="http://www.w3.org/1999/xlink" x="0px" y="0px"
	 viewBox="0 0 200 256.6" style="enable-background:new 0 0 200 256.6;" xml:space="preserve">
<style type="text/css">
	.st0{fill:#FFA500;}
</style>
<g>
	<path class="st0" d="M38.7,209.5l-16.8,20.6l18.3,25.3H27.9l-16.1-23.4l0,23.4H2l0-45.8h9.8v19.7l15.4-19.9H38.7z"/>
	<path class="st0" d="M75.1,212c5.7,3.9,9.1,11.1,9.1,20c0,7.9-2.6,15.8-7.9,20c-3.6,2.8-8.3,4.5-14,4.5c-13.7,0-22-8.4-22-23.5
		c0-14.1,7-24.5,22-24.5C67.3,208.6,71.7,209.7,75.1,212z M62,249.3c4.4,0,6.7-1.5,8.4-3.7c2.3-3,3.5-7.5,3.5-13.8
		c0-7.7-2.7-16.2-11.5-16.2c-9.1,0-11.9,8.1-11.9,16.7C50.4,240.2,52.4,249.3,62,249.3z"/>
	<path class="st0" d="M101.2,209.4l0,46h-9.8l0-46H101.2z"/>
	<path class="st0" d="M124,209.5l17.2,36.1l0-36.1h9.1l0,45.9h-13.5l-17.8-38.1l0,38.1h-9.3l0-45.9H124z"/>
	<path class="st0" d="M194.6,212.1c3.6,2.6,5.4,6.4,5.4,11.5h-10.2c-0.2-5.4-3.5-8.2-8.9-8.2c-10,0-13.4,8.5-13.4,17.4
		c0,8.8,3.4,16.2,14.1,16.2c3.2,0,6-0.3,7.9-0.9v-9.6h-8.9l0-7.6h18.7l0,22.9c-5.3,1.8-10.5,2.5-16.8,2.5c-9.4,0-15.6-2.1-19.6-6.2
		s-6-9.7-6-17c0-16.2,10.2-24.9,24-24.9C186.6,208.3,191.1,209.5,194.6,212.1z"/>
	<path class="st0" d="M200,168.6l-200,0v-4.9l200,0V168.6z"/>
	<path class="st0" d="M200,114.1l-200,0v-4.9l200,0V114.1z"/>
	<path class="st0" d="M200,59.5l-200,0v-4.9l200,0V59.5z"/>
	<path class="st0" d="M200,4.9L0,4.9V0l200,0V4.9z"/>
</g>
</svg>
