<?xml version="1.0" encoding="UTF-8" standalone="no"?>
<!-- Created with Inkscape (http://www.inkscape.org/) -->

<svg
   xmlns:dc="http://purl.org/dc/elements/1.1/"
   xmlns:cc="http://creativecommons.org/ns#"
   xmlns:rdf="http://www.w3.org/1999/02/22-rdf-syntax-ns#"
   xmlns:svg="http://www.w3.org/2000/svg"
   xmlns="http://www.w3.org/2000/svg"
   xmlns:sodipodi="http://sodipodi.sourceforge.net/DTD/sodipodi-0.dtd"
   xmlns:inkscape="http://www.inkscape.org/namespaces/inkscape"
   width="105.29166mm"
   height="105.29166mm"
   viewBox="0 0 105.29166 105.29166"
   version="1.1"
   id="svg8"
   inkscape:version="0.92.5 (2060ec1f9f, 2020-04-08)"
   sodipodi:docname="clair-logo-black.svg">
  <defs
     id="defs2">
    <inkscape:path-effect
       effect="bspline"
       id="path-effect823"
       is_visible="true"
       weight="33.333333"
       steps="2"
       helper_size="0"
       apply_no_weight="true"
       apply_with_weight="true"
       only_selected="false" />
    <inkscape:path-effect
       effect="bspline"
       id="path-effect819"
       is_visible="true"
       weight="33.333333"
       steps="2"
       helper_size="0"
       apply_no_weight="true"
       apply_with_weight="true"
       only_selected="false" />
  </defs>
  <sodipodi:namedview
     id="base"
     pagecolor="#ffffff"
     bordercolor="#666666"
     borderopacity="1.0"
     inkscape:pageopacity="0.0"
     inkscape:pageshadow="2"
     inkscape:zoom="2.1912149"
     inkscape:cx="159.72874"
     inkscape:cy="197.15086"
     inkscape:document-units="mm"
     inkscape:current-layer="layer1"
     showgrid="false"
     inkscape:window-width="1848"
     inkscape:window-height="1016"
     inkscape:window-x="72"
     inkscape:window-y="27"
     inkscape:window-maximized="1"
     fit-margin-top="0"
     fit-margin-left="0"
     fit-margin-right="0"
     fit-margin-bottom="0">
    <inkscape:grid
       type="xygrid"
       id="grid877" />
  </sodipodi:namedview>
  <metadata
     id="metadata5">
    <rdf:RDF>
      <cc:Work
         rdf:about="">
        <dc:format>image/svg+xml</dc:format>
        <dc:type
           rdf:resource="http://purl.org/dc/dcmitype/StillImage" />
        <dc:title></dc:title>
      </cc:Work>
    </rdf:RDF>
  </metadata>
  <g
     inkscape:label="Ebene 1"
     inkscape:groupmode="layer"
     id="layer1"
     transform="translate(-17.517009,-56.004397)">
    <circle
       style="opacity:0.93000034;fill:none;fill-opacity:1;stroke:#000000;stroke-width:5.29166651;stroke-linejoin:miter;stroke-miterlimit:4;stroke-dasharray:none;stroke-opacity:1"
       id="path815"
       cx="70.162842"
       cy="108.65023"
       r="50" />
    <path
       style="fill:#000000;stroke:#ffffff;stroke-width:0.99999994px;stroke-linecap:butt;stroke-linejoin:miter;stroke-opacity:1"
       d="M 171.01953 106.79688 C 163.56684 107.09996 156.55181 110.67678 151.24609 118.77734 C 142.75696 131.73824 138.64715 156.27464 129.13672 169.40625 C 119.62628 182.53786 104.71583 184.25937 99.84375 202.3457 C 94.971674 220.43204 100.13942 254.88465 133.71875 268.08008 C 167.29808 281.27551 229.28736 273.21356 262.21289 266.43359 C 295.13843 259.65362 299.00168 254.15646 298.78711 249.26367 C 298.57254 244.37089 294.27964 240.0802 294.92383 235.57422 C 295.56802 231.06823 301.14719 226.34744 301.57617 221.19922 C 302.00515 216.051 297.28324 210.47208 297.71289 205.53711 C 298.14254 200.60214 303.72036 196.31026 303.50586 191.16211 C 303.29136 186.01396 297.28457 180.00535 297.28516 175.01367 C 297.28574 170.02199 303.29212 166.04759 303.66602 159.69531 C 304.03991 153.34303 298.7823 144.61371 279.99414 143.54102 C 261.20598 142.46832 228.88621 149.05191 216.47656 149.35156 C 204.06692 149.65122 211.5673 143.66736 209.7168 134.9043 C 207.8663 126.14124 196.66572 114.59863 184.63281 109.51758 C 180.12047 107.61218 175.49115 106.61503 171.01953 106.79688 z M 165.32031 183.65234 C 167.90964 183.65234 169.768 185.19549 170.72266 186.39844 C 171.67732 187.60135 172.15735 188.75586 172.56055 189.95703 C 173.36695 192.35937 173.7207 195.03197 173.7207 197.98828 C 173.7207 200.94463 173.36695 203.625 172.56055 206.02734 C 172.15735 207.22855 171.67732 208.37521 170.72266 209.57812 C 169.768 210.78104 167.90964 212.32422 165.32031 212.32422 C 162.73099 212.32422 160.87068 210.78104 159.91602 209.57812 C 158.96136 208.37521 158.48132 207.22855 158.07812 206.02734 C 157.27172 203.625 156.91992 200.94463 156.91992 197.98828 C 156.91992 195.03197 157.27172 192.35937 158.07812 189.95703 C 158.48133 188.75586 158.96136 187.60135 159.91602 186.39844 C 160.87068 185.19549 162.73099 183.65234 165.32031 183.65234 z M 232.63477 183.65234 C 235.2242 183.65234 237.07656 185.19549 238.03125 186.39844 C 238.98594 187.60139 239.47375 188.75586 239.87695 189.95703 C 240.68336 192.35941 241.03516 195.03193 241.03516 197.98828 C 241.03516 200.94463 240.68337 203.62496 239.87695 206.02734 C 239.47375 207.22855 238.98594 208.37518 238.03125 209.57812 C 237.07656 210.78107 235.2242 212.32422 232.63477 212.32422 C 230.04534 212.32422 228.18711 210.78107 227.23242 209.57812 C 226.27774 208.37518 225.79579 207.22855 225.39258 206.02734 C 224.58617 203.62496 224.23438 200.94463 224.23438 197.98828 C 224.23438 195.03193 224.58616 192.35941 225.39258 189.95703 C 225.79579 188.75586 226.27774 187.60139 227.23242 186.39844 C 228.18711 185.19549 230.04534 183.65234 232.63477 183.65234 z M 171.96289 225.4043 C 172.72115 225.38366 173.47298 225.55337 174.14844 225.89844 C 174.14844 225.89844 178.36886 228.05186 183.73047 230.20312 C 189.09208 232.35436 195.78535 234.33972 199.09961 234.33594 C 202.37311 234.33068 209.00568 232.34235 214.3125 230.19531 C 219.61933 228.04824 223.79102 225.90625 223.79102 225.90625 C 226.80589 224.35936 230.39002 226.54896 230.39062 229.9375 C 230.39064 239.32622 223.80081 247.50299 214.23242 251.67578 C 204.66404 255.84857 193.29104 255.84857 183.72266 251.67578 C 174.15427 247.50299 167.55663 239.32622 167.55664 229.9375 C 167.55492 227.48217 169.50847 225.47157 171.96289 225.4043 z "
       transform="matrix(0.26458333,0,0,0.26458333,17.517009,56.004397)"
       id="path821" />
  </g>
</svg>
