<svg width="278" height="48" viewBox="0 0 278 48" fill="none" xmlns="http://www.w3.org/2000/svg">
<path d="M116.788 26.9445C115.802 26.5221 114.136 26.1701 112.705 26.1701C107.214 26.1701 104.75 29.1738 104.75 35.1344C104.75 41.4704 107.237 44.4037 112.517 44.4037C114.042 44.4037 115.708 43.9813 116.858 43.4181L116.483 40.7194C115.474 41.1653 114.3 41.4704 112.939 41.4704C109.49 41.4704 108.152 39.992 108.152 35.1578C108.152 30.6053 109.443 29.1504 112.869 29.1504C114.23 29.1504 115.521 29.432 116.436 29.784L116.788 26.9445Z" fill="#1E398F"/>
<path d="M133.519 35.2752C133.519 28.9392 131.384 26.1936 126.01 26.1936C120.613 26.1936 118.454 28.9392 118.454 35.2752C118.454 41.6112 120.683 44.4037 126.01 44.4037C131.384 44.4037 133.519 41.705 133.519 35.2752ZM130.14 35.2752C130.14 40.1093 129.037 41.4234 126.01 41.4234C122.983 41.4234 121.856 40.1328 121.856 35.2752C121.856 30.4176 122.983 29.1738 125.986 29.1738C129.061 29.1738 130.14 30.3941 130.14 35.2752Z" fill="#1E398F"/>
<path d="M142.486 41.0245C142.486 39.3818 141.383 38.2554 139.037 38.2554C137.652 38.2554 136.502 38.6309 135.611 39.2176L136.127 40.9306C136.948 40.4144 137.723 40.0858 138.638 40.0858C139.788 40.0858 140.233 40.5786 140.233 41.2122C140.233 42.5733 138.239 43.9813 135.728 46.2106V47.6186H142.463L142.486 45.8117H138.497V45.7413C140.867 44.0752 142.486 42.8314 142.486 41.0245Z" fill="#1E398F"/>
<path d="M151.861 26.4751V44.0752H154.724V33.9141L154.7 32.0133L154.747 31.9898L155.428 33.7733L159.534 44.0752H161.74L165.87 33.7733L166.551 31.9898L166.621 32.0133L166.574 33.9141V44.0752H169.531V26.4751H165.941L161.388 37.6922L160.731 39.4522H160.661L159.98 37.6922L155.475 26.4751H151.861Z" fill="#1E398F"/>
<path d="M185.041 37.0586C185.041 31.849 183.164 29.6901 178.776 29.6901C174.411 29.6901 172.44 31.849 172.44 37.0586C172.44 42.2917 174.411 44.4037 178.776 44.4037C183.164 44.4037 185.041 42.2917 185.041 37.0586ZM175.537 37.0586C175.537 33.3509 176.429 32.2245 178.776 32.2245C181.099 32.2245 181.967 33.3509 181.967 37.0586C181.967 40.7664 181.099 41.8928 178.776 41.8928C176.453 41.8928 175.537 40.7664 175.537 37.0586Z" fill="#1E398F"/>
<path d="M199.195 44.0752V34.9232C199.195 31.497 197.317 29.6901 194.337 29.6901C192.812 29.6901 191.38 30.2298 190.324 31.2154L189.855 29.8544L187.719 30.0186V44.0752H190.7V33.7029C191.286 32.8816 192.46 32.4122 193.516 32.4122C195.252 32.4122 196.214 33.1631 196.214 34.9466V44.0752H199.195Z" fill="#1E398F"/>
<path d="M205.906 44.0752V29.8778L202.879 30.0421V44.0752H205.906ZM206.188 26.6863C206.188 25.7711 205.624 25.2549 204.404 25.2549C203.207 25.2549 202.621 25.7711 202.621 26.6863C202.621 27.7189 203.207 28.0709 204.404 28.0709C205.624 28.0709 206.188 27.625 206.188 26.6863Z" fill="#1E398F"/>
<path d="M216.804 32.248V29.9482H213.495V26.4048L211.149 26.6394L210.609 29.9482H208.755V32.248H210.515V40.1797C210.515 42.7845 211.829 44.3098 214.481 44.3098C215.349 44.3098 216.217 44.1456 216.687 43.9344L216.499 41.705C216.241 41.7989 215.725 41.8693 215.349 41.8693C214.152 41.8693 213.495 41.353 213.495 40.1093V32.248H216.804Z" fill="#1E398F"/>
<path d="M230.806 37.0586C230.806 31.849 228.929 29.6901 224.54 29.6901C220.176 29.6901 218.204 31.849 218.204 37.0586C218.204 42.2917 220.176 44.4037 224.54 44.4037C228.929 44.4037 230.806 42.2917 230.806 37.0586ZM221.302 37.0586C221.302 33.3509 222.194 32.2245 224.54 32.2245C226.864 32.2245 227.732 33.3509 227.732 37.0586C227.732 40.7664 226.864 41.8928 224.54 41.8928C222.217 41.8928 221.302 40.7664 221.302 37.0586Z" fill="#1E398F"/>
<path d="M236.464 44.0752V36.9648C236.464 34.313 238.036 32.7173 240.078 32.7173C240.594 32.7173 241.111 32.8112 241.557 32.952L241.744 29.9247C241.369 29.8074 240.853 29.737 240.266 29.737C238.529 29.737 237.074 30.7226 236.206 32.553H236.136L235.878 29.9013L233.484 30.0421V44.0752H236.464Z" fill="#1E398F"/>
<path d="M247.614 44.0752V29.8778L244.587 30.0421V44.0752H247.614ZM247.896 26.6863C247.896 25.7711 247.333 25.2549 246.113 25.2549C244.916 25.2549 244.329 25.7711 244.329 26.6863C244.329 27.7189 244.916 28.0709 246.113 28.0709C247.333 28.0709 247.896 27.625 247.896 26.6863Z" fill="#1E398F"/>
<path d="M262.995 44.0752V34.9232C262.995 31.497 261.117 29.6901 258.137 29.6901C256.612 29.6901 255.18 30.2298 254.124 31.2154L253.655 29.8544L251.519 30.0186V44.0752H254.5V33.7029C255.086 32.8816 256.26 32.4122 257.316 32.4122C259.052 32.4122 260.014 33.1631 260.014 34.9466V44.0752H262.995Z" fill="#1E398F"/>
<path d="M271.161 38.2554C274.916 38.2554 276.347 36.7301 276.347 34.0314C276.347 33.3744 276.253 32.8112 276.066 32.3418L277.638 31.1685L277.004 29.6901L274.658 30.5349C273.672 29.9013 272.381 29.7136 271.161 29.7136C267.383 29.7136 265.951 31.4266 265.951 34.0314C265.951 35.6741 266.585 36.7066 267.571 37.3402C266.374 37.88 265.811 38.7482 265.811 39.6869C265.811 40.6256 266.28 41.3061 266.914 41.705C266.116 42.3621 265.693 43.2304 265.693 44.1456C265.693 46.328 267.359 47.8768 271.302 47.8768C275.807 47.8768 277.567 46.1637 277.567 43.4416C277.567 41.353 276.371 40.1797 273.015 39.945L269.612 39.7104C268.885 39.6634 268.556 39.3349 268.556 38.936C268.556 38.584 268.838 38.2789 269.307 38.0912C269.894 38.2085 270.527 38.2554 271.161 38.2554ZM272.499 42.5264C274.423 42.6672 274.869 43.0896 274.869 43.8874C274.869 44.8965 274.141 45.577 271.231 45.577C269.119 45.577 268.251 44.9434 268.251 43.7701C268.251 43.2773 268.556 42.7141 269.096 42.2682L272.499 42.5264ZM271.184 32.0133C272.804 32.0133 273.484 32.553 273.484 34.0784C273.484 35.5098 272.944 36.1434 271.114 36.1434C269.8 36.1434 268.885 35.721 268.885 34.0784C268.885 32.6704 269.495 32.0133 271.184 32.0133Z" fill="#1E398F"/>
<path d="M95.1871 30.8266C95.1871 22.1049 92.0888 18.1851 84.4246 18.1851C76.7929 18.1851 73.6294 22.1049 73.6294 30.8266C73.6294 39.5482 76.8908 43.5334 84.4246 43.5334C92.0888 43.5334 95.1871 39.7116 95.1871 30.8266ZM89.4471 30.8266C89.4471 37.0003 88.1425 38.6009 84.4572 38.6009C80.7392 38.6009 79.402 37.033 79.402 30.8266C79.402 24.6201 80.7066 23.1175 84.4246 23.1175C88.1752 23.1175 89.4471 24.6201 89.4471 30.8266Z" fill="#1E398F"/>
<path d="M42.3132 30.8266C42.3132 22.1049 39.2149 18.1851 31.5507 18.1851C23.919 18.1851 20.7555 22.1049 20.7555 30.8266C20.7555 39.5482 24.0169 43.5334 31.5507 43.5334C39.2149 43.5334 42.3132 39.7116 42.3132 30.8266ZM36.5732 30.8266C36.5732 37.0003 35.2686 38.6009 31.5833 38.6009C27.8653 38.6009 26.5281 37.033 26.5281 30.8266C26.5281 24.6201 27.8327 23.1175 31.5507 23.1175C35.3012 23.1175 36.5732 24.6201 36.5732 30.8266Z" fill="#1E398F"/>
<path d="M17.0244 18.9509C15.622 18.3955 13.3064 17.9382 11.3496 17.9382C3.52229 17.9382 0 22.2827 0 30.4491C0 39.2034 3.58752 43.3192 10.9909 43.3192C13.1434 43.3192 15.4916 42.7639 17.0896 41.98L16.5352 37.5048C15.1654 38.0928 13.5673 38.4521 11.7736 38.4521C7.30549 38.4521 5.77264 36.6228 5.77264 30.4817C5.77264 24.6673 7.24026 22.8707 11.6757 22.8707C13.5021 22.8707 15.198 23.1974 16.47 23.6873L17.0244 18.9509Z" fill="#1E398F"/>
<path fill-rule="evenodd" clip-rule="evenodd" d="M69.5534 2.52665C69.2114 1.43069 68.2196 0.667487 67.0743 0.618909C65.9289 0.570331 64.8762 1.24683 64.443 2.30991L57.0028 20.5672L52.4054 9.92872C51.9776 8.93885 51.0066 8.29532 49.9297 8.28795C48.8528 8.28059 47.8732 8.91077 47.4319 9.8947L41.289 23.593C41.9875 25.4395 42.3119 27.7588 42.3119 30.5808C42.3119 32.4418 42.1759 34.0807 41.8906 35.5089H41.9042L49.8651 17.7564L54.5821 28.6715C55.0167 29.677 56.0109 30.3236 57.1048 30.3121C58.1987 30.3007 59.1792 29.6333 59.5926 28.6189L66.6195 11.3757L73.9662 34.9225C73.7386 33.6328 73.628 32.1871 73.628 30.5808C73.628 26.7532 74.2373 23.8505 75.5662 21.798L69.5534 2.52665ZM36.0466 35.5089H35.9454L36.2007 34.9398C36.1541 35.14 36.1028 35.3295 36.0466 35.5089Z" fill="url(#paint0_linear_1777_15440)"/>
<defs>
<linearGradient id="paint0_linear_1777_15440" x1="75.5661" y1="0.616455" x2="35.9454" y2="0.616455" gradientUnits="userSpaceOnUse">
<stop offset="0.322917" stop-color="#D12C3A"/>
<stop offset="0.640625" stop-color="#223B89"/>
</linearGradient>
</defs>
</svg>
