<svg width="19" height="18" viewBox="0 0 19 18" fill="none" xmlns="http://www.w3.org/2000/svg">
<path d="M11.0418 10.5415C10.8421 10.7559 10.6012 10.9278 10.3336 11.0471C10.0659 11.1663 9.77702 11.2305 9.48407 11.2356C9.19111 11.2408 8.90012 11.1869 8.62844 11.0772C8.35677 10.9674 8.10998 10.8041 7.9028 10.5969C7.69562 10.3897 7.53229 10.1429 7.42255 9.87127C7.31282 9.5996 7.25893 9.30861 7.2641 9.01565C7.26927 8.7227 7.33339 8.43379 7.45264 8.16615C7.57189 7.89852 7.74382 7.65764 7.95818 7.4579M13.82 13.3197C12.5768 14.2674 11.063 14.7923 9.5 14.8179C4.40909 14.8179 1.5 8.99972 1.5 8.99972C2.40465 7.31382 3.65937 5.84089 5.18 4.67972L13.82 13.3197ZM7.97273 3.35608C8.47333 3.2389 8.98586 3.18033 9.5 3.18154C14.5909 3.18154 17.5 8.99972 17.5 8.99972C17.0585 9.82561 16.532 10.6032 15.9291 11.3197L7.97273 3.35608Z" stroke="#1E398F" stroke-width="2" stroke-linecap="round" stroke-linejoin="round"/>
<path d="M1.5 1L17.5 17" stroke="#1E398F" stroke-width="2" stroke-linecap="round" stroke-linejoin="round"/>
</svg>
