<svg width="48" height="48" viewBox="0 0 48 48" fill="none" xmlns="http://www.w3.org/2000/svg">
<path d="M6.35821 22.6008C7.08619 23.212 7.83977 23.844 8.01736 24.392C8.21016 24.9855 7.96777 25.9719 7.73417 26.9263C7.38138 28.3646 7.01579 29.8526 7.81897 30.9566C8.63095 32.0717 10.1677 32.1829 11.6549 32.2901C12.6268 32.3605 13.6316 32.4333 14.1244 32.7917C14.5436 33.0965 14.8804 33.8349 15.1996 34.6093V47.1985C15.1996 47.4761 15.3436 47.7329 15.5795 47.8793C15.8147 48.0249 16.1091 48.0369 16.3579 47.9145L20.7994 45.6929L25.2417 47.9137C25.3545 47.9705 25.4769 47.9985 25.5993 47.9985C25.7457 47.9985 25.8913 47.9585 26.0193 47.8793C26.2552 47.7329 26.3992 47.4761 26.3992 47.1985V45.1986L28.7992 43.3986L31.5191 45.4386C31.6599 45.5442 31.8295 45.5985 31.9991 45.5985C32.1207 45.5985 32.2439 45.5705 32.3567 45.5146C32.6279 45.3786 32.7991 45.1018 32.7991 44.7986V34.6093C33.1182 33.8341 33.455 33.0965 33.8734 32.7917C34.3662 32.4333 35.3718 32.3605 36.3438 32.2901C37.8301 32.1829 39.3677 32.0725 40.1796 30.9566C40.9828 29.8526 40.618 28.3654 40.2644 26.9263C40.0301 25.9727 39.7877 24.9855 39.9813 24.392C40.1596 23.8432 40.9124 23.2112 41.6404 22.6008C42.746 21.6728 43.9987 20.6209 43.9987 19.1993C43.9987 17.7777 42.746 16.7258 41.6404 15.7978C40.9124 15.1866 40.1589 14.5546 39.9813 14.0067C39.7885 13.4131 40.0309 12.4267 40.2644 11.4723C40.6172 10.034 40.9828 8.54601 40.1796 7.44204C39.3677 6.32687 37.8309 6.21568 36.3438 6.10848C35.3718 6.03808 34.367 5.96528 33.8742 5.60689C33.3918 5.2565 33.0183 4.33173 32.6567 3.43816C32.0935 2.0454 31.5103 0.606237 30.1807 0.174249C28.9048 -0.241739 27.6144 0.558239 26.368 1.33182C25.5209 1.8566 24.6457 2.39979 23.9993 2.39979C23.3529 2.39979 22.4778 1.8566 21.6306 1.33182C20.3842 0.558239 19.093 -0.241739 17.8179 0.174249C16.4883 0.606237 15.9059 2.0454 15.3428 3.43736C14.9804 4.33173 14.606 5.2565 14.1252 5.60689C13.6324 5.96528 12.6268 6.03808 11.6549 6.10848C10.1685 6.21568 8.63095 6.32607 7.81897 7.44204C7.01579 8.54601 7.38058 10.0332 7.73417 11.4723C7.96857 12.4259 8.21096 13.4131 8.01736 14.0067C7.83897 14.5554 7.08619 15.1874 6.35821 15.7978C5.25264 16.7258 3.99988 17.7777 3.99988 19.1993C3.99988 20.6209 5.25264 21.6728 6.35821 22.6008ZM24.7993 45.9041L21.157 44.0834C21.045 44.0266 20.9218 43.9986 20.7994 43.9986C20.677 43.9986 20.5538 44.0266 20.4418 44.0826L16.7995 45.9041V37.5884C16.8195 37.6084 16.8435 37.6212 16.8643 37.6404C16.9563 37.7268 17.0555 37.8036 17.1571 37.8764C17.2067 37.9116 17.2531 37.9508 17.3059 37.9828C17.4643 38.0796 17.6331 38.1636 17.8187 38.2244C19.0938 38.6388 20.385 37.8404 21.6314 37.0668C21.6325 37.0661 21.6337 37.0654 21.6348 37.0647C22.4801 36.5405 23.3538 35.9988 23.9993 35.9988C24.1009 35.9988 24.2145 36.0164 24.3369 36.0444C24.3553 36.0484 24.3745 36.054 24.3937 36.0588C24.5185 36.0916 24.6513 36.1356 24.7993 36.1972V44.7986V45.9041ZM31.1991 43.1986L29.2792 41.7587C29.1368 41.6523 28.968 41.5987 28.7992 41.5987C28.6304 41.5987 28.4616 41.6523 28.3192 41.7587L26.3992 43.1986V37.0884C26.6112 37.2196 26.824 37.3492 27.0384 37.4748C27.0896 37.5052 27.1408 37.5348 27.1928 37.5644C27.2704 37.6084 27.3472 37.6516 27.4256 37.694C27.499 37.7343 27.573 37.772 27.6465 37.8094C27.6548 37.8136 27.663 37.8178 27.6712 37.822C27.7312 37.8524 27.7912 37.8836 27.8512 37.9116C27.9792 37.9724 28.1072 38.0276 28.2352 38.078C28.252 38.0844 28.2688 38.0932 28.2864 38.0996C28.4304 38.154 28.5752 38.1988 28.72 38.2364C28.7648 38.2484 28.8096 38.2548 28.8552 38.2644C28.956 38.286 29.0576 38.3044 29.1584 38.3156C29.2128 38.322 29.2672 38.3244 29.3216 38.3276C29.3664 38.33 29.412 38.338 29.4568 38.338C29.5096 38.338 29.5632 38.3292 29.6159 38.326C29.6615 38.3228 29.7079 38.3212 29.7535 38.3156C29.8967 38.298 30.0391 38.2708 30.1823 38.2244C30.3687 38.1636 30.5367 38.0796 30.6959 37.9828C30.7479 37.9508 30.7943 37.9124 30.8431 37.8772C30.9455 37.8044 31.0447 37.7276 31.1359 37.6412C31.1559 37.622 31.1807 37.6084 31.2007 37.5884V43.1986H31.1991ZM7.38698 17.0226C8.28776 16.2666 9.21973 15.485 9.53892 14.5002C9.87251 13.4731 9.57492 12.2619 9.28773 11.0899C9.03493 10.0564 8.74694 8.886 9.11253 8.38281C9.48692 7.86843 10.6997 7.78123 11.7701 7.70363C12.966 7.61724 14.2028 7.52764 15.066 6.90046C15.9171 6.28048 16.3795 5.13971 16.8251 4.03734C17.2315 3.03417 17.6915 1.8974 18.3107 1.69581C18.8875 1.51261 19.8938 2.13739 20.7866 2.69098C21.825 3.33416 22.8977 3.99974 23.9993 3.99974C25.1009 3.99974 26.1736 3.33416 27.2112 2.69098C28.104 2.13739 29.1112 1.51181 29.6871 1.69581C30.3063 1.8966 30.7679 3.03417 31.1735 4.03734C31.6199 5.13971 32.0815 6.28048 32.9327 6.90046C33.795 7.52844 35.0326 7.61724 36.2286 7.70363C37.2989 7.78123 38.5117 7.86843 38.8853 8.38281C39.2517 8.886 38.9645 10.0572 38.7101 11.0907C38.4229 12.2619 38.1253 13.4739 38.4589 14.5002C38.7781 15.485 39.7101 16.2674 40.6108 17.0234C41.49 17.7609 42.3988 18.5233 42.3988 19.1993C42.3988 19.8753 41.49 20.6377 40.6116 21.376C39.7109 22.132 38.7789 22.9136 38.4597 23.8984C38.1261 24.9255 38.4237 26.1367 38.7109 27.3087C38.9637 28.3422 39.2517 29.5126 38.8861 30.0158C38.5117 30.5302 37.2989 30.6174 36.2286 30.695C35.0326 30.7814 33.7958 30.871 32.9327 31.4982C32.1351 32.0789 31.6807 33.1157 31.2591 34.1501L31.2583 34.1517L31.2303 34.2205C31.2111 34.2677 31.1919 34.3141 31.1727 34.3613C30.7663 35.3644 30.3063 36.5012 29.6871 36.7028C29.112 36.8884 28.104 36.2612 27.2112 35.7076C26.6344 35.35 26.0457 34.9893 25.4481 34.7365C25.4297 34.7285 25.4121 34.7213 25.3937 34.7141C25.2521 34.6557 25.1105 34.6053 24.9681 34.5613C24.9433 34.5533 24.9169 34.5445 24.8921 34.5373C24.7649 34.5005 24.6361 34.4725 24.5081 34.4501C24.4833 34.4461 24.4569 34.4381 24.4321 34.4349C24.2889 34.4117 24.1441 34.3989 23.9993 34.3989C22.8977 34.3989 21.825 35.0645 20.7874 35.7076C19.8946 36.2612 18.8875 36.8876 18.3115 36.7028C17.6987 36.5036 17.2411 35.3884 16.8379 34.3941C16.8331 34.3829 16.8283 34.3709 16.8235 34.3597L16.7403 34.1525C16.7395 34.1509 16.7387 34.1501 16.7379 34.1493C16.3171 33.1149 15.8619 32.0789 15.0652 31.499C14.2028 30.871 12.9652 30.7822 11.7693 30.6958C10.6989 30.6182 9.48612 30.531 9.11253 30.0166C8.74614 29.5134 9.03333 28.3422 9.28773 27.3087C9.57492 26.1375 9.87251 24.9255 9.53892 23.8992C9.21973 22.9144 8.28776 22.132 7.38698 21.376C6.50861 20.6377 5.59983 19.8753 5.59983 19.1993C5.59983 18.5233 6.50861 17.7609 7.38698 17.0226Z" fill="#1E398F"/>
<path d="M24.7993 45.9041L21.157 44.0834C21.045 44.0266 20.9218 43.9986 20.7994 43.9986C20.677 43.9986 20.5538 44.0266 20.4418 44.0826L16.7995 45.9041V37.5884C16.8195 37.6084 16.8435 37.6212 16.8643 37.6404C16.9563 37.7268 17.0555 37.8036 17.1571 37.8764C17.2067 37.9116 17.2531 37.9508 17.3059 37.9828C17.4643 38.0796 17.6331 38.1636 17.8187 38.2244C19.0938 38.6388 20.385 37.8404 21.6314 37.0668L21.6348 37.0647C22.4801 36.5405 23.3538 35.9988 23.9993 35.9988C24.1009 35.9988 24.2145 36.0164 24.3369 36.0444C24.3553 36.0484 24.3745 36.054 24.3937 36.0588C24.5185 36.0916 24.6513 36.1356 24.7993 36.1972V44.7986V45.9041Z" fill="#A5DBF8"/>
<path d="M31.1991 43.1986L29.2792 41.7587C29.1368 41.6523 28.968 41.5987 28.7992 41.5987C28.6304 41.5987 28.4616 41.6523 28.3192 41.7587L26.3992 43.1986V37.0884C26.6112 37.2196 26.824 37.3492 27.0384 37.4748C27.0896 37.5052 27.1408 37.5348 27.1928 37.5644C27.2704 37.6084 27.3472 37.6516 27.4256 37.694C27.499 37.7343 27.573 37.772 27.6465 37.8094L27.6712 37.822C27.7312 37.8524 27.7912 37.8836 27.8512 37.9116C27.9792 37.9724 28.1072 38.0276 28.2352 38.078C28.252 38.0844 28.2688 38.0932 28.2864 38.0996C28.4304 38.154 28.5752 38.1988 28.72 38.2364C28.7648 38.2484 28.8096 38.2548 28.8552 38.2644C28.956 38.286 29.0576 38.3044 29.1584 38.3156C29.2128 38.322 29.2672 38.3244 29.3216 38.3276C29.3664 38.33 29.412 38.338 29.4568 38.338C29.5096 38.338 29.5632 38.3292 29.6159 38.326C29.6615 38.3228 29.7079 38.3212 29.7535 38.3156C29.8967 38.298 30.0391 38.2708 30.1823 38.2244C30.3687 38.1636 30.5367 38.0796 30.6959 37.9828C30.7479 37.9508 30.7943 37.9124 30.8431 37.8772C30.9455 37.8044 31.0447 37.7276 31.1359 37.6412C31.1559 37.622 31.1807 37.6084 31.2007 37.5884V43.1986H31.1991Z" fill="#A5DBF8"/>
<path d="M23.9993 32.802C31.4983 32.802 37.5989 26.7014 37.5989 19.2024C37.5989 11.7034 31.4983 5.60278 23.9993 5.60278C16.5003 5.60278 10.3997 11.7034 10.3997 19.2024C10.3997 26.7014 16.5003 32.802 23.9993 32.802ZM23.9993 7.20274C30.6159 7.20274 35.9989 12.5858 35.9989 19.2024C35.9989 25.819 30.6159 31.2021 23.9993 31.2021C17.3827 31.2021 11.9996 25.819 11.9996 19.2024C11.9996 12.5858 17.3827 7.20274 23.9993 7.20274Z" fill="#1E398F"/>
<path d="M23.9993 7.20274C30.6159 7.20274 35.9989 12.5858 35.9989 19.2024C35.9989 25.819 30.6159 31.2021 23.9993 31.2021C17.3827 31.2021 11.9996 25.819 11.9996 19.2024C11.9996 12.5858 17.3827 7.20274 23.9993 7.20274Z" fill="#A5DBF8"/>
<path d="M1.59995 4.79986H3.19991V3.19991H4.79986V1.59995H3.19991V0H1.59995V1.59995H0V3.19991H1.59995V4.79986Z" fill="#1E398F"/>
<path d="M46.3985 3.9978H44.7986V5.59776H43.1986V7.19771H44.7986V8.79767H46.3985V7.19771H47.9985V5.59776H46.3985V3.9978Z" fill="#1E398F"/>
<path d="M1.59995 36.7999H3.19991V35.1999H4.79986V33.6H3.19991V32H1.59995V33.6H0V35.1999H1.59995V36.7999Z" fill="#1E398F"/>
<path d="M46.3985 43.1965H44.7986V44.7965H43.1986V46.3964H44.7986V47.9964H46.3985V46.3964H47.9985V44.7965H46.3985V43.1965Z" fill="#1E398F"/>
<path d="M43.9986 35.2009C40.0283 35.2009 36.7988 38.4312 36.7988 42.4007V43.2007H38.3988V42.4007C38.3988 39.3128 40.9115 36.8009 43.9986 36.8009V35.2009Z" fill="#1E398F"/>
<path d="M10.3997 47.9998V47.1998C10.3997 43.2303 7.17024 40 3.19995 40V41.6C6.28706 41.6 8.79979 44.1119 8.79979 47.1998V47.9998H10.3997Z" fill="#1E398F"/>
<path d="M1.59995 11.1965H0V12.7965H1.59995V11.1965Z" fill="#1E398F"/>
<path d="M36.7989 0H35.199V1.59995H36.7989V0Z" fill="#1E398F"/>
<path d="M47.9988 35.2009H46.3988V36.8009H47.9988V35.2009Z" fill="#1E398F"/>
<path d="M1.59995 40H0V41.6H1.59995V40Z" fill="#1E398F"/>
<path d="M46.3988 23.1965H44.7988V24.7965H46.3988V23.1965Z" fill="#1E398F"/>
</svg>
