<svg width="22" height="22" viewBox="0 0 22 22" fill="none" xmlns="http://www.w3.org/2000/svg">
<path d="M6.62 10.736C5.74 10.736 4.948 10.552 4.244 10.184C3.548 9.808 3 9.288 2.6 8.624C2.2 7.96 2 7.208 2 6.368C2 5.528 2.2 4.776 2.6 4.112C3 3.448 3.548 2.932 4.244 2.564C4.948 2.188 5.74 2 6.62 2C7.388 2 8.08 2.136 8.696 2.408C9.312 2.68 9.824 3.072 10.232 3.584L8.72 4.952C8.176 4.296 7.516 3.968 6.74 3.968C6.284 3.968 5.876 4.068 5.516 4.268C5.164 4.468 4.888 4.752 4.688 5.12C4.496 5.48 4.4 5.896 4.4 6.368C4.4 6.84 4.496 7.26 4.688 7.628C4.888 7.988 5.164 8.268 5.516 8.468C5.876 8.668 6.284 8.768 6.74 8.768C7.516 8.768 8.176 8.44 8.72 7.784L10.232 9.152C9.824 9.664 9.312 10.056 8.696 10.328C8.08 10.6 7.388 10.736 6.62 10.736Z" fill="black"/>
<path d="M15.3516 10.736C14.4636 10.736 13.6636 10.548 12.9516 10.172C12.2476 9.796 11.6916 9.276 11.2836 8.612C10.8836 7.948 10.6836 7.2 10.6836 6.368C10.6836 5.536 10.8836 4.788 11.2836 4.124C11.6916 3.46 12.2476 2.94 12.9516 2.564C13.6636 2.188 14.4636 2 15.3516 2C16.2396 2 17.0356 2.188 17.7396 2.564C18.4516 2.94 19.0076 3.46 19.4076 4.124C19.8156 4.788 20.0196 5.536 20.0196 6.368C20.0196 7.2 19.8156 7.948 19.4076 8.612C19.0076 9.276 18.4516 9.796 17.7396 10.172C17.0356 10.548 16.2396 10.736 15.3516 10.736ZM15.3516 8.768C15.7756 8.768 16.1596 8.668 16.5036 8.468C16.8476 8.268 17.1196 7.988 17.3196 7.628C17.5196 7.26 17.6196 6.84 17.6196 6.368C17.6196 5.896 17.5196 5.48 17.3196 5.12C17.1196 4.752 16.8476 4.468 16.5036 4.268C16.1596 4.068 15.7756 3.968 15.3516 3.968C14.9276 3.968 14.5436 4.068 14.1996 4.268C13.8556 4.468 13.5836 4.752 13.3836 5.12C13.1836 5.48 13.0836 5.896 13.0836 6.368C13.0836 6.84 13.1836 7.26 13.3836 7.628C13.5836 7.988 13.8556 8.268 14.1996 8.468C14.5436 8.668 14.9276 8.768 15.3516 8.768Z" fill="black"/>
<path d="M12.872 12.016L11.192 20.416H9.716L10.808 14.908L7.22 19.456H6.524L4.604 14.8L3.488 20.416H2L3.68 12.016H4.952L7.172 17.608L11.528 12.016H12.872Z" fill="black"/>
<path d="M15.5916 20.416C14.9676 20.416 14.4196 20.3 13.9476 20.068C13.4836 19.828 13.1236 19.496 12.8676 19.072C12.6116 18.648 12.4836 18.156 12.4836 17.596C12.4836 16.884 12.6436 16.244 12.9636 15.676C13.2916 15.108 13.7436 14.664 14.3196 14.344C14.9036 14.016 15.5596 13.852 16.2876 13.852C16.9116 13.852 17.4596 13.968 17.9316 14.2C18.4036 14.432 18.7676 14.76 19.0236 15.184C19.2796 15.608 19.4076 16.1 19.4076 16.66C19.4076 17.372 19.2436 18.012 18.9156 18.58C18.5876 19.148 18.1316 19.596 17.5476 19.924C16.9716 20.252 16.3196 20.416 15.5916 20.416ZM15.6876 19.132C16.1116 19.132 16.4876 19.032 16.8156 18.832C17.1516 18.624 17.4156 18.34 17.6076 17.98C17.7996 17.612 17.8956 17.196 17.8956 16.732C17.8956 16.228 17.7476 15.836 17.4516 15.556C17.1556 15.268 16.7396 15.124 16.2036 15.124C15.7796 15.124 15.3996 15.228 15.0636 15.436C14.7356 15.636 14.4756 15.92 14.2836 16.288C14.0916 16.648 13.9956 17.06 13.9956 17.524C13.9956 18.028 14.1436 18.424 14.4396 18.712C14.7356 18.992 15.1516 19.132 15.6876 19.132Z" fill="black"/>
<rect x="0.5" y="0.5" width="21" height="21" stroke="black"/>
</svg>
